<?xml version="1.0" encoding="utf-8"?>
<!-- Generator: Adobe Illustrator 18.0.0, SVG Export Plug-In . SVG Version: 6.00 Build 0)  -->
<!DOCTYPE svg PUBLIC "-//W3C//DTD SVG 1.1//EN" "http://www.w3.org/Graphics/SVG/1.1/DTD/svg11.dtd">
<svg version="1.1" id="Layer_1" xmlns="http://www.w3.org/2000/svg" xmlns:xlink="http://www.w3.org/1999/xlink" x="0px" y="0px"
	 width="64px" height="64px" viewBox="155.5 193 64 64" enable-background="new 155.5 193 64 64" xml:space="preserve">
<path fill="#222222" d="M214.7,193.1h-16.4h-8.4h-29.6c-2.7,0-4.8,2.1-4.8,4.7v54.3c0,2.6,2.1,4.8,4.8,4.8h29.6h8.4h16.4
	c2.6,0,4.8-2.1,4.8-4.8v-54.3C219.5,195.2,217.4,193.1,214.7,193.1z M209.3,216.5l-6.5,2.7v4.8v16.4c0,1.5-1.2,2.7-2.7,2.7
	s-2.7-1.2-2.7-2.7v-18.8l-4.1,1.7v15.2c0,1.5-1.2,2.7-2.7,2.7c-1.5,0-2.7-1.2-2.7-2.7v-12.9l-4.1,1.7v1v16.4c0,1.5-1.2,2.7-2.7,2.7
	c-1.5,0-2.7-1.2-2.7-2.7v-15.1l-3.9,1.7v8.3c0,1.5-1.2,2.7-2.7,2.7c-1.5,0-2.7-1.2-2.7-2.7v-6.1l-1.2,0.5c-1.3,0.7-2.9,0-3.4-1.3
	c-0.6-1.4,0.1-2.9,1.4-3.5l3.3-1.4v-21c0-1.5,1.2-2.7,2.7-2.7c1.5,0,2.7,1.2,2.7,2.7v16.4v2.3l4.1-1.7v-11.9c0-1.5,1.2-2.7,2.7-2.7
	c1.5,0,2.7,1.2,2.7,2.7v9.6l2.6-1.1l1.5-0.6v-14.2c0-1.5,1.2-2.7,2.7-2.7c1.5,0,2.7,1.2,2.7,2.7v11.9l4.1-1.7v-8.2
	c0-1.5,1.2-2.7,2.7-2.7s2.7,1.2,2.7,2.7v5.9l4.4-1.9c1.4-0.6,2.9,0.1,3.5,1.4C211.3,214.4,210.6,216,209.3,216.5z"/>
</svg>
